<svg xmlns="http://www.w3.org/2000/svg" xmlns:xlink="http://www.w3.org/1999/xlink" width="200" zoomAndPan="magnify" viewBox="0 0 150 149.999998" height="200" preserveAspectRatio="xMidYMid meet" version="1.0"><defs><g/><clipPath id="f1c7cfa6c4"><path d="M 22.273438 15 L 119.773438 15 L 119.773438 94 L 22.273438 94 Z M 22.273438 15 " clip-rule="nonzero"/></clipPath><clipPath id="41e5fc9141"><path d="M 71 83 L 91 83 L 91 100.5 L 71 100.5 Z M 71 83 " clip-rule="nonzero"/></clipPath><clipPath id="202c5d81b9"><path d="M 51 83 L 71 83 L 71 100.5 L 51 100.5 Z M 51 83 " clip-rule="nonzero"/></clipPath></defs><rect x="-15" width="180" fill="#ffffff" y="-15" height="179.999997" fill-opacity="1"/><rect x="-15" width="180" fill="#ffffff" y="-15" height="179.999997" fill-opacity="1"/><path fill="#00aeef" d="M 74.742188 85.894531 C 73.90625 85.894531 73.074219 85.589844 72.390625 85.363281 C 71.859375 85.210938 71.402344 84.980469 71.023438 84.980469 C 70.71875 84.980469 70.1875 85.132812 69.65625 85.363281 C 68.746094 85.742188 67.53125 86.125 66.316406 85.742188 C 65.105469 85.363281 64.34375 84.296875 63.8125 83.460938 C 63.511719 83.003906 63.207031 82.625 62.980469 82.472656 C 62.75 82.320312 62.21875 82.167969 61.6875 82.015625 C 60.703125 81.710938 59.488281 81.40625 58.726562 80.34375 C 57.96875 79.277344 58.046875 78.058594 58.046875 76.996094 C 58.046875 76.460938 58.121094 75.929688 57.96875 75.625 C 57.894531 75.398438 57.515625 74.941406 57.285156 74.5625 C 56.679688 73.800781 55.84375 72.8125 55.84375 71.441406 C 55.84375 70.074219 56.679688 69.085938 57.285156 68.324219 C 57.589844 67.941406 57.894531 67.5625 57.96875 67.257812 C 58.046875 66.953125 58.046875 66.421875 58.046875 65.890625 C 57.96875 64.898438 57.96875 63.605469 58.726562 62.542969 C 59.488281 61.476562 60.703125 61.171875 61.6875 60.867188 C 62.21875 60.714844 62.675781 60.566406 62.980469 60.414062 C 63.207031 60.261719 63.511719 59.804688 63.8125 59.421875 C 64.421875 58.585938 65.105469 57.523438 66.316406 57.140625 C 67.53125 56.761719 68.671875 57.21875 69.65625 57.523438 C 70.1875 57.675781 70.644531 57.902344 71.023438 57.902344 C 71.402344 57.902344 71.859375 57.75 72.390625 57.523438 C 73.300781 57.140625 74.515625 56.761719 75.730469 57.140625 C 76.945312 57.523438 77.703125 58.585938 78.234375 59.421875 C 78.539062 59.878906 78.839844 60.261719 79.070312 60.414062 C 79.296875 60.566406 79.828125 60.714844 80.359375 60.867188 C 81.347656 61.171875 82.558594 61.476562 83.320312 62.542969 C 84.078125 63.605469 84.003906 64.824219 84.003906 65.890625 C 84.003906 66.421875 83.925781 66.953125 84.078125 67.257812 C 84.152344 67.488281 84.535156 67.941406 84.761719 68.324219 C 85.445312 69.160156 86.203125 70.148438 86.203125 71.441406 C 86.203125 72.734375 85.367188 73.800781 84.761719 74.5625 C 84.457031 74.941406 84.152344 75.320312 84.078125 75.625 C 84.003906 75.929688 84.003906 76.460938 84.003906 76.996094 C 84.003906 77.984375 84.078125 79.277344 83.320312 80.34375 C 82.558594 81.40625 81.347656 81.710938 80.359375 82.015625 C 79.828125 82.167969 79.371094 82.320312 79.070312 82.472656 C 78.839844 82.625 78.539062 83.082031 78.234375 83.460938 C 77.628906 84.296875 76.945312 85.363281 75.730469 85.742188 C 75.351562 85.820312 75.046875 85.894531 74.742188 85.894531 Z M 67.378906 60.03125 C 67.378906 60.03125 67.304688 60.03125 67.304688 60.03125 C 67.078125 60.109375 66.621094 60.714844 66.394531 61.171875 C 66.015625 61.78125 65.484375 62.464844 64.800781 63 C 64.117188 63.53125 63.28125 63.757812 62.597656 63.910156 C 62.144531 64.0625 61.386719 64.214844 61.234375 64.445312 C 61.082031 64.597656 61.15625 65.355469 61.15625 65.8125 C 61.15625 66.574219 61.234375 67.410156 60.929688 68.246094 C 60.703125 69.007812 60.171875 69.691406 59.714844 70.226562 C 59.410156 70.605469 58.957031 71.214844 58.957031 71.441406 C 58.957031 71.671875 59.410156 72.277344 59.714844 72.660156 C 60.171875 73.269531 60.703125 73.875 60.929688 74.636719 C 61.234375 75.472656 61.15625 76.308594 61.15625 77.070312 C 61.15625 77.527344 61.082031 78.289062 61.234375 78.441406 C 61.386719 78.667969 62.066406 78.820312 62.597656 78.972656 C 63.28125 79.199219 64.117188 79.429688 64.800781 79.886719 C 65.484375 80.34375 65.9375 81.101562 66.394531 81.710938 C 66.699219 82.167969 67.078125 82.777344 67.304688 82.851562 C 67.53125 82.929688 68.214844 82.625 68.671875 82.472656 C 69.355469 82.242188 70.1875 81.941406 71.101562 81.941406 C 72.011719 81.941406 72.769531 82.242188 73.527344 82.472656 C 73.984375 82.625 74.667969 82.851562 74.894531 82.851562 C 75.121094 82.777344 75.578125 82.167969 75.804688 81.710938 C 76.183594 81.101562 76.714844 80.417969 77.398438 79.886719 C 78.082031 79.351562 78.917969 79.125 79.601562 78.972656 C 80.054688 78.820312 80.816406 78.667969 80.964844 78.441406 C 81.117188 78.289062 81.042969 77.527344 81.042969 77.070312 C 81.042969 76.308594 80.964844 75.472656 81.269531 74.636719 C 81.496094 73.875 82.027344 73.191406 82.484375 72.660156 C 82.789062 72.277344 83.242188 71.671875 83.242188 71.441406 C 83.242188 71.214844 82.789062 70.605469 82.484375 70.226562 C 82.027344 69.617188 81.496094 69.007812 81.269531 68.246094 C 80.964844 67.410156 81.042969 66.574219 81.042969 65.8125 C 81.042969 65.355469 81.117188 64.597656 80.964844 64.445312 C 80.816406 64.214844 80.132812 64.0625 79.601562 63.910156 C 78.917969 63.683594 78.082031 63.453125 77.398438 63 C 76.714844 62.542969 76.261719 61.78125 75.804688 61.171875 C 75.5 60.714844 75.121094 60.109375 74.894531 60.03125 C 74.667969 59.957031 73.984375 60.261719 73.527344 60.414062 C 72.84375 60.640625 72.011719 60.945312 71.101562 60.945312 C 70.1875 60.945312 69.429688 60.640625 68.671875 60.414062 C 68.214844 60.261719 67.609375 60.03125 67.378906 60.03125 Z M 67.378906 60.03125 " fill-opacity="1" fill-rule="nonzero"/><path fill="#ffce32" d="M 71.554688 20.019531 C 71.175781 19.867188 70.796875 19.867188 70.492188 20.019531 L 30.113281 35.84375 L 70.492188 49.839844 C 70.796875 49.914062 71.101562 49.914062 71.402344 49.839844 L 111.78125 35.84375 Z M 71.023438 40.253906 C 66.847656 40.253906 62.675781 38.65625 62.675781 35.691406 C 62.675781 32.722656 66.847656 31.125 71.023438 31.125 C 75.199219 31.125 79.371094 32.722656 79.371094 35.691406 C 79.371094 38.65625 75.199219 40.253906 71.023438 40.253906 Z M 71.023438 40.253906 " fill-opacity="1" fill-rule="nonzero"/><path fill="#231f20" d="M 71.023438 65.355469 C 67.683594 65.355469 64.953125 68.09375 64.953125 71.441406 C 64.953125 74.789062 67.683594 77.527344 71.023438 77.527344 C 74.363281 77.527344 77.097656 74.789062 77.097656 71.441406 C 77.097656 68.09375 74.363281 65.355469 71.023438 65.355469 Z M 71.023438 74.484375 C 69.355469 74.484375 67.988281 73.117188 67.988281 71.441406 C 67.988281 69.769531 69.355469 68.398438 71.023438 68.398438 C 72.695312 68.398438 74.058594 69.769531 74.058594 71.441406 C 74.058594 73.117188 72.695312 74.484375 71.023438 74.484375 Z M 71.023438 74.484375 " fill-opacity="1" fill-rule="nonzero"/><g clip-path="url(#f1c7cfa6c4)"><path fill="#231f20" d="M 117.625 38.808594 C 118.765625 38.351562 119.523438 37.289062 119.597656 36.070312 C 119.597656 34.855469 118.914062 33.710938 117.777344 33.179688 L 72.769531 15.457031 C 71.632812 15 70.417969 15 69.355469 15.457031 L 24.269531 33.179688 C 23.132812 33.710938 22.449219 34.855469 22.449219 36.070312 C 22.449219 37.289062 23.207031 38.351562 24.421875 38.808594 L 69.507812 54.480469 C 69.960938 54.632812 70.492188 54.707031 71.023438 54.707031 C 71.554688 54.707031 72.085938 54.632812 72.542969 54.480469 L 110.492188 41.320312 L 110.492188 75.777344 C 107.226562 77.90625 106.164062 86.503906 105.9375 88.40625 C 105.785156 89.699219 106.242188 91.066406 107.074219 92.054688 C 107.910156 93.046875 109.199219 93.578125 110.414062 93.578125 L 113.449219 93.578125 C 114.742188 93.578125 115.957031 93.046875 116.789062 92.054688 C 117.703125 91.066406 118.082031 89.773438 117.929688 88.40625 C 117.703125 86.503906 116.640625 77.90625 113.375 75.777344 L 113.375 40.253906 Z M 115.042969 88.710938 C 115.121094 89.164062 114.96875 89.621094 114.664062 90.003906 C 114.363281 90.308594 113.980469 90.535156 113.527344 90.535156 L 110.492188 90.535156 C 110.035156 90.535156 109.65625 90.382812 109.351562 90.003906 C 109.050781 89.621094 108.898438 89.164062 108.972656 88.710938 C 109.429688 84.222656 110.566406 80.644531 111.476562 79.050781 L 112.539062 79.050781 C 113.449219 80.570312 114.589844 84.144531 115.042969 88.710938 Z M 71.554688 51.589844 C 71.25 51.742188 70.871094 51.742188 70.492188 51.589844 L 25.484375 35.996094 L 70.417969 18.347656 C 70.796875 18.195312 71.175781 18.195312 71.632812 18.347656 L 116.488281 35.996094 Z M 71.554688 51.589844 " fill-opacity="1" fill-rule="nonzero"/></g><path fill="#231f20" d="M 71.023438 31.125 C 66.847656 31.125 62.675781 32.722656 62.675781 35.691406 C 62.675781 38.65625 66.847656 40.253906 71.023438 40.253906 C 75.199219 40.253906 79.371094 38.65625 79.371094 35.691406 C 79.371094 32.722656 75.199219 31.125 71.023438 31.125 Z M 71.023438 37.210938 C 67.683594 37.210938 65.863281 36.070312 65.710938 35.691406 C 65.863281 35.234375 67.683594 34.167969 71.023438 34.167969 C 74.289062 34.167969 76.109375 35.234375 76.335938 35.691406 C 76.109375 36.148438 74.289062 37.210938 71.023438 37.210938 Z M 71.023438 37.210938 " fill-opacity="1" fill-rule="nonzero"/><path fill="#231f20" d="M 55.007812 77.222656 C 52.351562 76.539062 49.46875 75.777344 46.128906 74.941406 C 44.535156 74.484375 42.867188 74.105469 41.042969 73.570312 C 40.359375 73.421875 39.90625 72.8125 39.90625 72.125 L 39.90625 67.867188 C 44.003906 68.855469 47.570312 69.84375 50.757812 70.679688 C 51.441406 70.832031 52.125 71.0625 52.808594 71.214844 C 52.882812 70.074219 53.1875 69.085938 53.644531 68.246094 C 52.960938 68.09375 52.277344 67.867188 51.59375 67.714844 C 48.179688 66.800781 44.382812 65.8125 39.90625 64.75 L 39.90625 47.40625 L 36.871094 46.339844 L 36.871094 72.125 C 36.871094 74.179688 38.234375 76.007812 40.285156 76.539062 C 42.105469 76.996094 43.777344 77.453125 45.371094 77.90625 C 49.242188 78.898438 52.503906 79.808594 55.464844 80.496094 C 55.007812 79.277344 55.007812 78.136719 55.007812 77.222656 Z M 55.007812 77.222656 " fill-opacity="1" fill-rule="nonzero"/><path fill="#231f20" d="M 102.140625 64.75 C 101.003906 65.050781 99.789062 65.355469 98.421875 65.738281 C 95.464844 66.496094 91.972656 67.488281 88.480469 68.324219 C 88.9375 69.160156 89.238281 70.148438 89.238281 71.289062 C 92.730469 70.453125 96.144531 69.539062 99.183594 68.703125 C 100.246094 68.398438 101.230469 68.171875 102.140625 67.941406 L 102.140625 72.203125 C 102.140625 72.886719 101.6875 73.496094 101.003906 73.648438 C 97.816406 74.5625 92.503906 76.007812 86.960938 77.300781 C 86.960938 78.210938 86.960938 79.351562 86.507812 80.496094 C 92.125 79.199219 97.738281 77.753906 101.761719 76.613281 C 103.734375 76.082031 105.101562 74.257812 105.101562 72.203125 L 105.101562 46.339844 L 102.066406 47.40625 L 102.066406 64.75 Z M 102.140625 64.75 " fill-opacity="1" fill-rule="nonzero"/><g clip-path="url(#41e5fc9141)"><path fill="#00aeef" d="M 90.378906 91.980469 L 84.304688 83.460938 C 83.320312 84.144531 82.257812 84.527344 81.496094 84.753906 L 86.734375 92.054688 L 83.851562 91.753906 C 83.242188 91.675781 82.636719 91.828125 82.179688 92.207031 C 81.726562 92.589844 81.496094 93.046875 81.421875 93.578125 L 80.964844 95.9375 L 75.804688 88.710938 C 75.425781 88.785156 75.121094 88.785156 74.742188 88.785156 C 73.527344 88.785156 72.464844 88.40625 71.632812 88.175781 L 79.675781 99.359375 C 80.054688 99.890625 80.738281 100.273438 81.421875 100.273438 C 81.648438 100.273438 81.878906 100.273438 82.027344 100.195312 C 82.863281 99.96875 83.472656 99.28125 83.546875 98.445312 L 84.230469 94.871094 L 88.253906 95.25 C 89.085938 95.328125 89.921875 94.945312 90.378906 94.261719 C 90.910156 93.578125 90.832031 92.664062 90.378906 91.980469 Z M 90.378906 91.980469 " fill-opacity="1" fill-rule="nonzero"/></g><g clip-path="url(#202c5d81b9)"><path fill="#00aeef" d="M 66.316406 88.863281 L 61.15625 96.089844 L 60.703125 93.730469 C 60.625 93.199219 60.398438 92.664062 59.941406 92.359375 C 59.488281 91.980469 58.878906 91.828125 58.273438 91.90625 L 55.390625 92.207031 L 60.625 84.90625 C 59.789062 84.679688 58.804688 84.296875 57.816406 83.613281 L 51.746094 92.132812 C 51.214844 92.816406 51.214844 93.730469 51.667969 94.492188 C 52.125 95.25 52.960938 95.632812 53.796875 95.480469 L 57.816406 95.097656 L 58.5 98.675781 C 58.578125 99.511719 59.183594 100.195312 60.019531 100.425781 C 60.246094 100.5 60.472656 100.5 60.625 100.5 C 61.308594 100.5 61.992188 100.195312 62.371094 99.585938 L 70.417969 88.40625 C 69.429688 88.632812 67.988281 89.089844 66.316406 88.863281 Z M 66.316406 88.863281 " fill-opacity="1" fill-rule="nonzero"/></g><g fill="#000000" fill-opacity="1"><g transform="translate(26.224323, 119.117126)"><g><path d="M 1.5 -1.140625 C 1.457031 -0.941406 1.507812 -0.785156 1.65625 -0.671875 C 1.800781 -0.566406 2.03125 -0.515625 2.34375 -0.515625 L 2.34375 0 L 0 0 L 0 -0.515625 C 0.269531 -0.515625 0.46875 -0.5625 0.59375 -0.65625 C 0.726562 -0.75 0.820312 -0.910156 0.875 -1.140625 L 2.96875 -10.703125 L 3.640625 -10.703125 L 5.8125 -1.109375 C 5.851562 -0.867188 5.929688 -0.707031 6.046875 -0.625 C 6.171875 -0.550781 6.375 -0.515625 6.65625 -0.515625 L 6.65625 0 L 3.40625 0 L 3.40625 -0.515625 C 3.738281 -0.515625 3.972656 -0.554688 4.109375 -0.640625 C 4.242188 -0.734375 4.285156 -0.882812 4.234375 -1.09375 L 3.953125 -2.5 L 1.796875 -2.5 Z M 1.921875 -3.0625 L 3.828125 -3.0625 L 2.890625 -7.53125 Z M 1.921875 -3.0625 "/></g></g></g><g fill="#000000" fill-opacity="1"><g transform="translate(32.912593, 119.117126)"><g><path d="M 2.9375 -10.078125 C 2.625 -10.078125 2.347656 -9.957031 2.109375 -9.71875 C 1.867188 -9.476562 1.75 -9.195312 1.75 -8.875 C 1.75 -8.613281 1.8125 -8.351562 1.9375 -8.09375 C 2.0625 -7.84375 2.269531 -7.550781 2.5625 -7.21875 L 3.96875 -5.578125 C 4.375 -5.109375 4.6875 -4.703125 4.90625 -4.359375 C 5.125 -4.015625 5.273438 -3.6875 5.359375 -3.375 C 5.453125 -3.0625 5.5 -2.71875 5.5 -2.34375 C 5.5 -1.882812 5.378906 -1.46875 5.140625 -1.09375 C 4.910156 -0.71875 4.597656 -0.414062 4.203125 -0.1875 C 3.816406 0.03125 3.382812 0.140625 2.90625 0.140625 C 2.5625 0.140625 2.28125 0.101562 2.0625 0.03125 C 1.851562 -0.03125 1.6875 -0.09375 1.5625 -0.15625 C 1.4375 -0.21875 1.328125 -0.25 1.234375 -0.25 C 1.140625 -0.25 1.050781 -0.222656 0.96875 -0.171875 C 0.882812 -0.117188 0.832031 -0.0625 0.8125 0 L 0.328125 0 L 0.328125 -2.96875 L 0.796875 -2.96875 C 0.929688 -2.21875 1.164062 -1.628906 1.5 -1.203125 C 1.832031 -0.785156 2.222656 -0.578125 2.671875 -0.578125 C 3.066406 -0.578125 3.378906 -0.707031 3.609375 -0.96875 C 3.835938 -1.226562 3.953125 -1.582031 3.953125 -2.03125 C 3.953125 -2.394531 3.863281 -2.757812 3.6875 -3.125 C 3.507812 -3.5 3.222656 -3.910156 2.828125 -4.359375 L 1.65625 -5.71875 C 1.164062 -6.28125 0.820312 -6.757812 0.625 -7.15625 C 0.4375 -7.550781 0.34375 -7.972656 0.34375 -8.421875 C 0.34375 -8.816406 0.457031 -9.179688 0.6875 -9.515625 C 0.914062 -9.859375 1.21875 -10.128906 1.59375 -10.328125 C 1.976562 -10.535156 2.382812 -10.640625 2.8125 -10.640625 C 3.164062 -10.640625 3.414062 -10.664062 3.5625 -10.71875 C 3.71875 -10.78125 3.832031 -10.882812 3.90625 -11.03125 L 4.375 -11.03125 L 5 -8.5 L 4.515625 -8.375 C 4.335938 -8.84375 4.175781 -9.195312 4.03125 -9.4375 C 3.882812 -9.675781 3.726562 -9.84375 3.5625 -9.9375 C 3.394531 -10.03125 3.1875 -10.078125 2.9375 -10.078125 Z M 2.9375 -10.078125 "/></g></g></g><g fill="#000000" fill-opacity="1"><g transform="translate(38.74734, 119.117126)"><g><path d="M 3.375 -10.640625 C 3.726562 -10.640625 3.976562 -10.664062 4.125 -10.71875 C 4.28125 -10.78125 4.394531 -10.882812 4.46875 -11.03125 L 4.9375 -11.03125 L 5.5625 -8.5 L 5.078125 -8.375 C 4.898438 -8.84375 4.738281 -9.195312 4.59375 -9.4375 C 4.445312 -9.675781 4.289062 -9.84375 4.125 -9.9375 C 3.957031 -10.03125 3.75 -10.078125 3.5 -10.078125 C 3.125 -10.078125 2.804688 -9.929688 2.546875 -9.640625 C 2.296875 -9.359375 2.171875 -9.007812 2.171875 -8.59375 L 2.171875 -1.90625 C 2.171875 -1.5 2.289062 -1.164062 2.53125 -0.90625 C 2.769531 -0.644531 3.070312 -0.515625 3.4375 -0.515625 C 3.875 -0.515625 4.226562 -0.707031 4.5 -1.09375 C 4.769531 -1.488281 4.90625 -2.003906 4.90625 -2.640625 L 4.90625 -2.875 L 5.5 -2.875 L 5.5 -2.859375 C 5.5 -1.835938 5.3125 -1.082031 4.9375 -0.59375 C 4.5625 -0.101562 3.976562 0.140625 3.1875 0.140625 C 2.375 0.140625 1.738281 -0.125 1.28125 -0.65625 C 0.832031 -1.1875 0.609375 -1.921875 0.609375 -2.859375 L 0.609375 -7.640625 C 0.609375 -8.617188 0.84375 -9.363281 1.3125 -9.875 C 1.78125 -10.382812 2.46875 -10.640625 3.375 -10.640625 Z M 3.375 -10.640625 "/></g></g></g><g fill="#000000" fill-opacity="1"><g transform="translate(44.708018, 119.117126)"><g><path d="M 3.359375 -10.640625 C 4.210938 -10.640625 4.875 -10.375 5.34375 -9.84375 C 5.820312 -9.320312 6.0625 -8.585938 6.0625 -7.640625 L 6.0625 -2.859375 C 6.0625 -1.878906 5.828125 -1.132812 5.359375 -0.625 C 4.898438 -0.113281 4.234375 0.140625 3.359375 0.140625 C 2.472656 0.140625 1.789062 -0.113281 1.3125 -0.625 C 0.84375 -1.144531 0.609375 -1.890625 0.609375 -2.859375 L 0.609375 -7.640625 C 0.609375 -8.609375 0.84375 -9.347656 1.3125 -9.859375 C 1.78125 -10.378906 2.460938 -10.640625 3.359375 -10.640625 Z M 3.359375 -0.421875 C 3.691406 -0.421875 3.96875 -0.546875 4.1875 -0.796875 C 4.40625 -1.046875 4.515625 -1.367188 4.515625 -1.765625 L 4.515625 -8.734375 C 4.515625 -9.128906 4.40625 -9.453125 4.1875 -9.703125 C 3.96875 -9.953125 3.691406 -10.078125 3.359375 -10.078125 C 3.035156 -10.078125 2.757812 -9.945312 2.53125 -9.6875 C 2.3125 -9.4375 2.203125 -9.117188 2.203125 -8.734375 L 2.203125 -1.765625 C 2.203125 -1.359375 2.304688 -1.03125 2.515625 -0.78125 C 2.734375 -0.539062 3.015625 -0.421875 3.359375 -0.421875 Z M 3.359375 -0.421875 "/></g></g></g><g fill="#000000" fill-opacity="1"><g transform="translate(51.424269, 119.117126)"><g><path d="M 1.96875 -0.515625 C 2.269531 -0.515625 2.484375 -0.5625 2.609375 -0.65625 C 2.742188 -0.75 2.8125 -0.90625 2.8125 -1.125 L 2.8125 -9.984375 L 2.625 -9.984375 C 2.257812 -9.984375 1.957031 -9.925781 1.71875 -9.8125 C 1.476562 -9.695312 1.273438 -9.492188 1.109375 -9.203125 C 0.953125 -8.910156 0.789062 -8.488281 0.625 -7.9375 L 0.109375 -8.0625 L 0.734375 -11.015625 L 1.203125 -11.015625 C 1.242188 -10.804688 1.304688 -10.664062 1.390625 -10.59375 C 1.484375 -10.53125 1.632812 -10.5 1.84375 -10.5 L 5.4375 -10.5 C 5.644531 -10.5 5.796875 -10.535156 5.890625 -10.609375 C 5.984375 -10.679688 6.046875 -10.816406 6.078125 -11.015625 L 6.546875 -11.015625 L 7.171875 -8.0625 L 6.65625 -7.9375 C 6.488281 -8.488281 6.320312 -8.910156 6.15625 -9.203125 C 6 -9.492188 5.800781 -9.695312 5.5625 -9.8125 C 5.332031 -9.925781 5.023438 -9.984375 4.640625 -9.984375 L 4.375 -9.984375 L 4.375 -1.125 C 4.375 -0.90625 4.441406 -0.75 4.578125 -0.65625 C 4.710938 -0.5625 4.925781 -0.515625 5.21875 -0.515625 L 5.21875 0 L 1.96875 0 Z M 1.96875 -0.515625 "/></g></g></g><g fill="#000000" fill-opacity="1"><g transform="translate(58.708696, 119.117126)"><g/></g></g><g fill="#000000" fill-opacity="1"><g transform="translate(61.395196, 119.117126)"><g/></g></g><g fill="#000000" fill-opacity="1"><g transform="translate(64.087602, 119.117126)"><g><path d="M 0.34375 -0.515625 C 0.632812 -0.515625 0.84375 -0.5625 0.96875 -0.65625 C 1.101562 -0.75 1.171875 -0.90625 1.171875 -1.125 L 1.171875 -6.4375 C 1.171875 -6.65625 1.101562 -6.8125 0.96875 -6.90625 C 0.84375 -7 0.632812 -7.046875 0.34375 -7.046875 L 0.34375 -7.5625 L 3.5625 -7.5625 L 3.5625 -7.046875 C 3.257812 -7.046875 3.039062 -7 2.90625 -6.90625 C 2.78125 -6.8125 2.71875 -6.65625 2.71875 -6.4375 L 2.71875 -1.125 C 2.71875 -0.90625 2.78125 -0.75 2.90625 -0.65625 C 3.039062 -0.5625 3.257812 -0.515625 3.5625 -0.515625 L 3.5625 0 L 0.34375 0 Z M 0.34375 -0.515625 "/></g></g></g><g fill="#000000" fill-opacity="1"><g transform="translate(67.977426, 119.117126)"><g><path d="M 2.9375 -10.078125 C 2.625 -10.078125 2.347656 -9.957031 2.109375 -9.71875 C 1.867188 -9.476562 1.75 -9.195312 1.75 -8.875 C 1.75 -8.613281 1.8125 -8.351562 1.9375 -8.09375 C 2.0625 -7.84375 2.269531 -7.550781 2.5625 -7.21875 L 3.96875 -5.578125 C 4.375 -5.109375 4.6875 -4.703125 4.90625 -4.359375 C 5.125 -4.015625 5.273438 -3.6875 5.359375 -3.375 C 5.453125 -3.0625 5.5 -2.71875 5.5 -2.34375 C 5.5 -1.882812 5.378906 -1.46875 5.140625 -1.09375 C 4.910156 -0.71875 4.597656 -0.414062 4.203125 -0.1875 C 3.816406 0.03125 3.382812 0.140625 2.90625 0.140625 C 2.5625 0.140625 2.28125 0.101562 2.0625 0.03125 C 1.851562 -0.03125 1.6875 -0.09375 1.5625 -0.15625 C 1.4375 -0.21875 1.328125 -0.25 1.234375 -0.25 C 1.140625 -0.25 1.050781 -0.222656 0.96875 -0.171875 C 0.882812 -0.117188 0.832031 -0.0625 0.8125 0 L 0.328125 0 L 0.328125 -2.96875 L 0.796875 -2.96875 C 0.929688 -2.21875 1.164062 -1.628906 1.5 -1.203125 C 1.832031 -0.785156 2.222656 -0.578125 2.671875 -0.578125 C 3.066406 -0.578125 3.378906 -0.707031 3.609375 -0.96875 C 3.835938 -1.226562 3.953125 -1.582031 3.953125 -2.03125 C 3.953125 -2.394531 3.863281 -2.757812 3.6875 -3.125 C 3.507812 -3.5 3.222656 -3.910156 2.828125 -4.359375 L 1.65625 -5.71875 C 1.164062 -6.28125 0.820312 -6.757812 0.625 -7.15625 C 0.4375 -7.550781 0.34375 -7.972656 0.34375 -8.421875 C 0.34375 -8.816406 0.457031 -9.179688 0.6875 -9.515625 C 0.914062 -9.859375 1.21875 -10.128906 1.59375 -10.328125 C 1.976562 -10.535156 2.382812 -10.640625 2.8125 -10.640625 C 3.164062 -10.640625 3.414062 -10.664062 3.5625 -10.71875 C 3.71875 -10.78125 3.832031 -10.882812 3.90625 -11.03125 L 4.375 -11.03125 L 5 -8.5 L 4.515625 -8.375 C 4.335938 -8.84375 4.175781 -9.195312 4.03125 -9.4375 C 3.882812 -9.675781 3.726562 -9.84375 3.5625 -9.9375 C 3.394531 -10.03125 3.1875 -10.078125 2.9375 -10.078125 Z M 2.9375 -10.078125 "/></g></g></g><g fill="#000000" fill-opacity="1"><g transform="translate(73.812173, 119.117126)"><g><path d="M 4.109375 -5.53125 C 4.554688 -5.53125 4.960938 -5.394531 5.328125 -5.125 C 5.691406 -4.851562 5.976562 -4.488281 6.1875 -4.03125 C 6.40625 -3.582031 6.515625 -3.070312 6.515625 -2.5 L 6.515625 -1.859375 C 6.515625 -1.460938 6.601562 -1.140625 6.78125 -0.890625 C 6.96875 -0.640625 7.21875 -0.515625 7.53125 -0.515625 L 7.6875 -0.515625 L 7.6875 0 L 7.53125 0 C 6.625 0 5.957031 -0.21875 5.53125 -0.65625 C 5.113281 -1.09375 4.90625 -1.785156 4.90625 -2.734375 L 4.90625 -3.5625 C 4.90625 -3.96875 4.796875 -4.300781 4.578125 -4.5625 C 4.359375 -4.832031 4.085938 -4.96875 3.765625 -4.96875 L 3.390625 -4.96875 L 3.390625 -5.53125 L 5.1875 -9.484375 C 5.257812 -9.609375 5.226562 -9.722656 5.09375 -9.828125 C 4.96875 -9.929688 4.78125 -9.984375 4.53125 -9.984375 L 4.53125 -10.5 L 6.875 -10.5 L 6.875 -9.984375 C 6.59375 -9.984375 6.375 -9.9375 6.21875 -9.84375 C 6.070312 -9.757812 5.953125 -9.597656 5.859375 -9.359375 Z M 0.421875 -0.515625 C 0.722656 -0.515625 0.9375 -0.5625 1.0625 -0.65625 C 1.195312 -0.75 1.265625 -0.90625 1.265625 -1.125 L 1.265625 -9.375 C 1.265625 -9.59375 1.195312 -9.75 1.0625 -9.84375 C 0.9375 -9.9375 0.722656 -9.984375 0.421875 -9.984375 L 0.421875 -10.5 L 3.671875 -10.5 L 3.671875 -9.984375 C 3.367188 -9.984375 3.148438 -9.9375 3.015625 -9.84375 C 2.890625 -9.75 2.828125 -9.59375 2.828125 -9.375 L 2.828125 -1.125 C 2.828125 -0.90625 2.890625 -0.75 3.015625 -0.65625 C 3.148438 -0.5625 3.367188 -0.515625 3.671875 -0.515625 L 3.671875 0 L 0.421875 0 Z M 0.421875 -0.515625 "/></g></g></g><g fill="#000000" fill-opacity="1"><g transform="translate(81.200054, 119.117126)"><g><path d="M 3.359375 -10.640625 C 4.210938 -10.640625 4.875 -10.375 5.34375 -9.84375 C 5.820312 -9.320312 6.0625 -8.585938 6.0625 -7.640625 L 6.0625 -2.859375 C 6.0625 -1.878906 5.828125 -1.132812 5.359375 -0.625 C 4.898438 -0.113281 4.234375 0.140625 3.359375 0.140625 C 2.472656 0.140625 1.789062 -0.113281 1.3125 -0.625 C 0.84375 -1.144531 0.609375 -1.890625 0.609375 -2.859375 L 0.609375 -7.640625 C 0.609375 -8.609375 0.84375 -9.347656 1.3125 -9.859375 C 1.78125 -10.378906 2.460938 -10.640625 3.359375 -10.640625 Z M 3.359375 -0.421875 C 3.691406 -0.421875 3.96875 -0.546875 4.1875 -0.796875 C 4.40625 -1.046875 4.515625 -1.367188 4.515625 -1.765625 L 4.515625 -8.734375 C 4.515625 -9.128906 4.40625 -9.453125 4.1875 -9.703125 C 3.96875 -9.953125 3.691406 -10.078125 3.359375 -10.078125 C 3.035156 -10.078125 2.757812 -9.945312 2.53125 -9.6875 C 2.3125 -9.4375 2.203125 -9.117188 2.203125 -8.734375 L 2.203125 -1.765625 C 2.203125 -1.359375 2.304688 -1.03125 2.515625 -0.78125 C 2.734375 -0.539062 3.015625 -0.421875 3.359375 -0.421875 Z M 3.359375 -0.421875 "/></g></g></g><g fill="#000000" fill-opacity="1"><g transform="translate(87.916305, 119.117126)"><g><path d="M 1.96875 -0.515625 C 2.269531 -0.515625 2.484375 -0.5625 2.609375 -0.65625 C 2.742188 -0.75 2.8125 -0.90625 2.8125 -1.125 L 2.8125 -9.984375 L 2.625 -9.984375 C 2.257812 -9.984375 1.957031 -9.925781 1.71875 -9.8125 C 1.476562 -9.695312 1.273438 -9.492188 1.109375 -9.203125 C 0.953125 -8.910156 0.789062 -8.488281 0.625 -7.9375 L 0.109375 -8.0625 L 0.734375 -11.015625 L 1.203125 -11.015625 C 1.242188 -10.804688 1.304688 -10.664062 1.390625 -10.59375 C 1.484375 -10.53125 1.632812 -10.5 1.84375 -10.5 L 5.4375 -10.5 C 5.644531 -10.5 5.796875 -10.535156 5.890625 -10.609375 C 5.984375 -10.679688 6.046875 -10.816406 6.078125 -11.015625 L 6.546875 -11.015625 L 7.171875 -8.0625 L 6.65625 -7.9375 C 6.488281 -8.488281 6.320312 -8.910156 6.15625 -9.203125 C 6 -9.492188 5.800781 -9.695312 5.5625 -9.8125 C 5.332031 -9.925781 5.023438 -9.984375 4.640625 -9.984375 L 4.375 -9.984375 L 4.375 -1.125 C 4.375 -0.90625 4.441406 -0.75 4.578125 -0.65625 C 4.710938 -0.5625 4.925781 -0.515625 5.21875 -0.515625 L 5.21875 0 L 1.96875 0 Z M 1.96875 -0.515625 "/></g></g></g><g fill="#000000" fill-opacity="1"><g transform="translate(95.192241, 119.117126)"><g><path d="M 0.359375 -0.515625 C 0.660156 -0.515625 0.875 -0.5625 1 -0.65625 C 1.132812 -0.75 1.203125 -0.90625 1.203125 -1.125 L 1.203125 -9.375 C 1.203125 -9.59375 1.132812 -9.75 1 -9.84375 C 0.875 -9.9375 0.660156 -9.984375 0.359375 -9.984375 L 0.359375 -10.5 L 3.859375 -10.5 C 5.617188 -10.5 6.5 -9.492188 6.5 -7.484375 C 6.5 -6.804688 6.394531 -6.253906 6.1875 -5.828125 C 5.988281 -5.410156 5.644531 -5.0625 5.15625 -4.78125 C 5.601562 -4.488281 5.921875 -4.128906 6.109375 -3.703125 C 6.304688 -3.273438 6.40625 -2.738281 6.40625 -2.09375 L 6.40625 -1.90625 C 6.40625 -1.488281 6.5 -1.148438 6.6875 -0.890625 C 6.875 -0.640625 7.125 -0.515625 7.4375 -0.515625 L 7.59375 -0.515625 L 7.59375 0 L 7.4375 0 C 6.53125 0 5.863281 -0.21875 5.4375 -0.65625 C 5.007812 -1.101562 4.796875 -1.796875 4.796875 -2.734375 L 4.796875 -3.125 C 4.796875 -3.53125 4.703125 -3.863281 4.515625 -4.125 C 4.328125 -4.382812 4.082031 -4.515625 3.78125 -4.515625 L 3.4375 -4.515625 L 3.4375 -5.078125 L 3.859375 -5.078125 C 4.179688 -5.078125 4.4375 -5.203125 4.625 -5.453125 C 4.8125 -5.710938 4.90625 -6.046875 4.90625 -6.453125 L 4.90625 -8.59375 C 4.90625 -9.007812 4.8125 -9.335938 4.625 -9.578125 C 4.445312 -9.816406 4.191406 -9.9375 3.859375 -9.9375 L 2.765625 -9.9375 L 2.765625 -1.125 C 2.765625 -0.90625 2.828125 -0.75 2.953125 -0.65625 C 3.085938 -0.5625 3.304688 -0.515625 3.609375 -0.515625 L 3.609375 0 L 0.359375 0 Z M 0.359375 -0.515625 "/></g></g></g><g fill="#000000" fill-opacity="1"><g transform="translate(102.664065, 119.117126)"><g><path d="M 1.5 -1.140625 C 1.457031 -0.941406 1.507812 -0.785156 1.65625 -0.671875 C 1.800781 -0.566406 2.03125 -0.515625 2.34375 -0.515625 L 2.34375 0 L 0 0 L 0 -0.515625 C 0.269531 -0.515625 0.46875 -0.5625 0.59375 -0.65625 C 0.726562 -0.75 0.820312 -0.910156 0.875 -1.140625 L 2.96875 -10.703125 L 3.640625 -10.703125 L 5.8125 -1.109375 C 5.851562 -0.867188 5.929688 -0.707031 6.046875 -0.625 C 6.171875 -0.550781 6.375 -0.515625 6.65625 -0.515625 L 6.65625 0 L 3.40625 0 L 3.40625 -0.515625 C 3.738281 -0.515625 3.972656 -0.554688 4.109375 -0.640625 C 4.242188 -0.734375 4.285156 -0.882812 4.234375 -1.09375 L 3.953125 -2.5 L 1.796875 -2.5 Z M 1.921875 -3.0625 L 3.828125 -3.0625 L 2.890625 -7.53125 Z M 1.921875 -3.0625 "/></g></g></g><g fill="#000000" fill-opacity="1"><g transform="translate(109.352335, 119.117126)"><g><path d="M 3.375 -10.640625 C 3.726562 -10.640625 3.976562 -10.664062 4.125 -10.71875 C 4.28125 -10.78125 4.394531 -10.882812 4.46875 -11.03125 L 4.9375 -11.03125 L 5.5625 -8.5 L 5.078125 -8.375 C 4.898438 -8.84375 4.738281 -9.195312 4.59375 -9.4375 C 4.445312 -9.675781 4.289062 -9.84375 4.125 -9.9375 C 3.957031 -10.03125 3.75 -10.078125 3.5 -10.078125 C 3.125 -10.078125 2.804688 -9.929688 2.546875 -9.640625 C 2.296875 -9.359375 2.171875 -9.007812 2.171875 -8.59375 L 2.171875 -1.90625 C 2.171875 -1.5 2.289062 -1.164062 2.53125 -0.90625 C 2.769531 -0.644531 3.070312 -0.515625 3.4375 -0.515625 C 3.875 -0.515625 4.226562 -0.707031 4.5 -1.09375 C 4.769531 -1.488281 4.90625 -2.003906 4.90625 -2.640625 L 4.90625 -2.875 L 5.5 -2.875 L 5.5 -2.859375 C 5.5 -1.835938 5.3125 -1.082031 4.9375 -0.59375 C 4.5625 -0.101562 3.976562 0.140625 3.1875 0.140625 C 2.375 0.140625 1.738281 -0.125 1.28125 -0.65625 C 0.832031 -1.1875 0.609375 -1.921875 0.609375 -2.859375 L 0.609375 -7.640625 C 0.609375 -8.617188 0.84375 -9.363281 1.3125 -9.875 C 1.78125 -10.382812 2.46875 -10.640625 3.375 -10.640625 Z M 3.375 -10.640625 "/></g></g></g><g fill="#000000" fill-opacity="1"><g transform="translate(115.313013, 119.117126)"><g><path d="M 4.109375 -5.53125 C 4.554688 -5.53125 4.960938 -5.394531 5.328125 -5.125 C 5.691406 -4.851562 5.976562 -4.488281 6.1875 -4.03125 C 6.40625 -3.582031 6.515625 -3.070312 6.515625 -2.5 L 6.515625 -1.859375 C 6.515625 -1.460938 6.601562 -1.140625 6.78125 -0.890625 C 6.96875 -0.640625 7.21875 -0.515625 7.53125 -0.515625 L 7.6875 -0.515625 L 7.6875 0 L 7.53125 0 C 6.625 0 5.957031 -0.21875 5.53125 -0.65625 C 5.113281 -1.09375 4.90625 -1.785156 4.90625 -2.734375 L 4.90625 -3.5625 C 4.90625 -3.96875 4.796875 -4.300781 4.578125 -4.5625 C 4.359375 -4.832031 4.085938 -4.96875 3.765625 -4.96875 L 3.390625 -4.96875 L 3.390625 -5.53125 L 5.1875 -9.484375 C 5.257812 -9.609375 5.226562 -9.722656 5.09375 -9.828125 C 4.96875 -9.929688 4.78125 -9.984375 4.53125 -9.984375 L 4.53125 -10.5 L 6.875 -10.5 L 6.875 -9.984375 C 6.59375 -9.984375 6.375 -9.9375 6.21875 -9.84375 C 6.070312 -9.757812 5.953125 -9.597656 5.859375 -9.359375 Z M 0.421875 -0.515625 C 0.722656 -0.515625 0.9375 -0.5625 1.0625 -0.65625 C 1.195312 -0.75 1.265625 -0.90625 1.265625 -1.125 L 1.265625 -9.375 C 1.265625 -9.59375 1.195312 -9.75 1.0625 -9.84375 C 0.9375 -9.9375 0.722656 -9.984375 0.421875 -9.984375 L 0.421875 -10.5 L 3.671875 -10.5 L 3.671875 -9.984375 C 3.367188 -9.984375 3.148438 -9.9375 3.015625 -9.84375 C 2.890625 -9.75 2.828125 -9.59375 2.828125 -9.375 L 2.828125 -1.125 C 2.828125 -0.90625 2.890625 -0.75 3.015625 -0.65625 C 3.148438 -0.5625 3.367188 -0.515625 3.671875 -0.515625 L 3.671875 0 L 0.421875 0 Z M 0.421875 -0.515625 "/></g></g></g></svg>